<svg xmlns="http://www.w3.org/2000/svg" viewBox="-8 -8 80 80"><defs><linearGradient id="cl7p" x1="0" y1="0" x2="0.3" y2="1"><stop offset="0" stop-color="#FF6A1A"></stop><stop offset="1" stop-color="#FFD08A"></stop></linearGradient><linearGradient id="cl7s" x1="0" y1="1" x2="1" y2="0"><stop offset="0" stop-color="#7A4DFF"></stop><stop offset="1" stop-color="#D6C8FF"></stop></linearGradient><linearGradient id="cl7t" x1="0" y1="0" x2="1" y2="1"><stop offset="0" stop-color="#18B83B"></stop><stop offset="1" stop-color="#C9F2A0"></stop></linearGradient></defs><g><g transform="rotate(-30 32 32)"><path d="M18 18H46A14 14 0 0 1 60 32V32A14 14 0 0 1 46 46H18A14 14 0 0 1 4 32V32A14 14 0 0 1 18 18Z" fill="url(#cl7p)"></path><path d="M12 32Q16 23 20 32T28 32T36 32T44 32T52 32" fill="none" stroke-linecap="round" stroke-linejoin="round" stroke="#173F35" stroke-width="3.5"></path></g></g></svg>
