<svg xmlns="http://www.w3.org/2000/svg" viewBox="-8 -8 80 80"><defs><linearGradient id="rb5p" x1="0" y1="0" x2="0.3" y2="1"><stop offset="0" stop-color="#12A7B8"></stop><stop offset="1" stop-color="#A8EEF2"></stop></linearGradient><linearGradient id="rb5s" x1="0" y1="1" x2="1" y2="0"><stop offset="0" stop-color="#18B83B"></stop><stop offset="1" stop-color="#C9F2A0"></stop></linearGradient><linearGradient id="rb5t" x1="0" y1="0" x2="1" y2="1"><stop offset="0" stop-color="#18B83B"></stop><stop offset="1" stop-color="#C9F2A0"></stop></linearGradient></defs><g><g><path d="M16 46H48L52 58H12Z" fill="url(#rb5p)"></path><path d="M17 6H47A7 7 0 0 1 54 13V39A7 7 0 0 1 47 46H17A7 7 0 0 1 10 39V13A7 7 0 0 1 17 6Z" fill="url(#rb5p)"></path><path d="M20 12H44A4 4 0 0 1 48 16V34A4 4 0 0 1 44 38H20A4 4 0 0 1 16 34V16A4 4 0 0 1 20 12Z" fill="url(#rb5s)"></path><path d="M24.8 22.9Q27.5 19.3 30.2 22.9M33.8 22.9Q36.5 19.3 39.2 22.9" fill="none" stroke-linecap="round" stroke-linejoin="round" stroke="#fff" stroke-width="3.5"></path><path d="M26.6 26.5Q32.0 34.6 37.4 26.5Z" fill="#fff"></path><path d="M36 52H46" fill="none" stroke-linecap="round" stroke-linejoin="round" stroke="#173F35" stroke-width="3.5"></path><circle cx="51" cy="13" r="10" fill="url(#rb5t)"></circle><path d="M46 13L50 17L56 9" fill="none" stroke-linecap="round" stroke-linejoin="round" stroke="#fff" stroke-width="3.5"></path></g></g></svg>
