<svg xmlns="http://www.w3.org/2000/svg" viewBox="-8 -8 80 80"><defs><linearGradient id="rb3p" x1="0" y1="0" x2="0.3" y2="1"><stop offset="0" stop-color="#12A7B8"></stop><stop offset="1" stop-color="#A8EEF2"></stop></linearGradient><linearGradient id="rb3s" x1="0" y1="1" x2="1" y2="0"><stop offset="0" stop-color="#FF3D6E"></stop><stop offset="1" stop-color="#FFB8CB"></stop></linearGradient><linearGradient id="rb3t" x1="0" y1="0" x2="1" y2="1"><stop offset="0" stop-color="#FF3D6E"></stop><stop offset="1" stop-color="#FFB8CB"></stop></linearGradient></defs><g><g><path d="M16 46H48L52 58H12Z" fill="url(#rb3p)"></path><path d="M17 6H47A7 7 0 0 1 54 13V39A7 7 0 0 1 47 46H17A7 7 0 0 1 10 39V13A7 7 0 0 1 17 6Z" fill="url(#rb3p)"></path><path d="M20 12H44A4 4 0 0 1 48 16V34A4 4 0 0 1 44 38H20A4 4 0 0 1 16 34V16A4 4 0 0 1 20 12Z" fill="url(#rb3s)"></path><path d="M27.5 24.8C25.2 23.3 24.2 22.0 24.2 20.7C24.2 19.6 25.1 18.8 26.1 18.8C26.7 18.8 27.2 19.2 27.5 19.7C27.8 19.2 28.3 18.8 28.9 18.8C29.9 18.8 30.8 19.6 30.8 20.7C30.8 22.0 29.8 23.3 27.5 24.8Z" fill="#fff"></path><path d="M36.5 24.8C34.2 23.3 33.2 22.0 33.2 20.7C33.2 19.6 34.1 18.8 35.1 18.8C35.7 18.8 36.2 19.2 36.5 19.7C36.8 19.2 37.3 18.8 37.9 18.8C38.9 18.8 39.8 19.6 39.8 20.7C39.8 22.0 38.8 23.3 36.5 24.8Z" fill="#fff"></path><path d="M27.5 27.4Q32.0 31.9 36.5 27.4" fill="none" stroke-linecap="round" stroke-linejoin="round" stroke="#fff" stroke-width="3.5"></path><path d="M36 52H46" fill="none" stroke-linecap="round" stroke-linejoin="round" stroke="#173F35" stroke-width="3.5"></path></g></g></svg>
