<svg xmlns="http://www.w3.org/2000/svg" viewBox="-8 -8 80 80"><defs><linearGradient id="rb10p" x1="0" y1="0" x2="0.3" y2="1"><stop offset="0" stop-color="#12A7B8"></stop><stop offset="1" stop-color="#A8EEF2"></stop></linearGradient><linearGradient id="rb10s" x1="0" y1="1" x2="1" y2="0"><stop offset="0" stop-color="#FF6A1A"></stop><stop offset="1" stop-color="#FFD08A"></stop></linearGradient><linearGradient id="rb10t" x1="0" y1="0" x2="1" y2="1"><stop offset="0" stop-color="#FF3D6E"></stop><stop offset="1" stop-color="#FFB8CB"></stop></linearGradient></defs><g><g><path d="M16 46H48L52 58H12Z" fill="url(#rb10p)"></path><path d="M17 6H47A7 7 0 0 1 54 13V39A7 7 0 0 1 47 46H17A7 7 0 0 1 10 39V13A7 7 0 0 1 17 6Z" fill="url(#rb10p)"></path><path d="M20 12H44A4 4 0 0 1 48 16V34A4 4 0 0 1 44 38H20A4 4 0 0 1 16 34V16A4 4 0 0 1 20 12Z" fill="url(#rb10s)"></path><path d="M27.5 18.1L28.6 20.6L31.2 20.9L29.3 22.7L29.8 25.3L27.5 24.0L25.2 25.3L25.7 22.7L23.8 20.9L26.4 20.6Z" fill="#fff"></path><path d="M36.5 18.1L37.6 20.6L40.2 20.9L38.3 22.7L38.8 25.3L36.5 24.0L34.2 25.3L34.7 22.7L32.8 20.9L35.4 20.6Z" fill="#fff"></path><path d="M26.6 26.5Q32.0 34.6 37.4 26.5Z" fill="#fff"></path><path d="M36 52H46" fill="none" stroke-linecap="round" stroke-linejoin="round" stroke="#173F35" stroke-width="3.5"></path></g></g></svg>
