<svg xmlns="http://www.w3.org/2000/svg" viewBox="-8 -8 80 80"><defs><linearGradient id="na2p" x1="0" y1="0" x2="0.3" y2="1"><stop offset="0" stop-color="#FF6A1A"></stop><stop offset="1" stop-color="#FFD08A"></stop></linearGradient><linearGradient id="na2s" x1="0" y1="1" x2="1" y2="0"><stop offset="0" stop-color="#FF3D6E"></stop><stop offset="1" stop-color="#FFB8CB"></stop></linearGradient><linearGradient id="na2t" x1="0" y1="0" x2="1" y2="1"><stop offset="0" stop-color="#7A4DFF"></stop><stop offset="1" stop-color="#D6C8FF"></stop></linearGradient></defs><g><g><circle cx="32" cy="6" r="6" fill="url(#na2s)"></circle><path d="M8 58C8 46 18 42 32 42C46 42 56 46 56 58Z" fill="url(#na2t)"></path><path d="M26 43L32 50L38 43" fill="none" stroke-linecap="round" stroke-linejoin="round" stroke="#fff" stroke-width="3.5"></path><path d="M22 45V50A5 5 0 0 0 32 50" fill="none" stroke-linecap="round" stroke-linejoin="round" stroke="#173F35" stroke-width="3.5"></path><circle cx="32" cy="24" r="15" fill="url(#na2p)"></circle><path d="M24.0 25.0Q27.0 21.0 30.0 25.0M34.0 25.0Q37.0 21.0 40.0 25.0" fill="none" stroke-linecap="round" stroke-linejoin="round" stroke="#173F35" stroke-width="3.5"></path><path d="M26.0 29.0Q32.0 38.0 38.0 29.0Z" fill="#173F35"></path><path d="M17 22C17 12 24 8 32 8C40 8 47 12 47 22C42 17 34 15 26 18C22 19 19 21 17 22Z" fill="url(#na2s)"></path></g></g></svg>
