<svg xmlns="http://www.w3.org/2000/svg" viewBox="-8 -8 80 80"><defs><linearGradient id="fm7p" x1="0" y1="0" x2="0.3" y2="1"><stop offset="0" stop-color="#12A7B8"></stop><stop offset="1" stop-color="#A8EEF2"></stop></linearGradient><linearGradient id="fm7s" x1="0" y1="1" x2="1" y2="0"><stop offset="0" stop-color="#FF3D6E"></stop><stop offset="1" stop-color="#FFB8CB"></stop></linearGradient><linearGradient id="fm7t" x1="0" y1="0" x2="1" y2="1"><stop offset="0" stop-color="#18B83B"></stop><stop offset="1" stop-color="#C9F2A0"></stop></linearGradient></defs><g><g transform="rotate(-30 32 32)"><path d="M6 22H44L52 26V38L44 42H6Z" fill="url(#fm7p)"></path><path d="M54 26H60A2 2 0 0 1 62 28V36A2 2 0 0 1 60 38H54A2 2 0 0 1 52 36V28A2 2 0 0 1 54 26Z" fill="url(#fm7s)"></path><path d="M11 22V42" fill="none" stroke-linecap="round" stroke-linejoin="round" stroke="#173F35" stroke-width="3.5"></path></g></g></svg>
