<svg xmlns="http://www.w3.org/2000/svg" viewBox="-8 -8 80 80"><defs><linearGradient id="fm6p" x1="0" y1="0" x2="0.3" y2="1"><stop offset="0" stop-color="#FF6A1A"></stop><stop offset="1" stop-color="#FFD08A"></stop></linearGradient><linearGradient id="fm6s" x1="0" y1="1" x2="1" y2="0"><stop offset="0" stop-color="#E0B400"></stop><stop offset="1" stop-color="#FFF08A"></stop></linearGradient><linearGradient id="fm6t" x1="0" y1="0" x2="1" y2="1"><stop offset="0" stop-color="#FF3D6E"></stop><stop offset="1" stop-color="#FFB8CB"></stop></linearGradient></defs><g><g><path d="M18 8H46A10 10 0 0 1 56 18V46A10 10 0 0 1 46 56H18A10 10 0 0 1 8 46V18A10 10 0 0 1 18 8Z" fill="url(#fm6p)"></path><path d="M24 18H40A6 6 0 0 1 46 24V40A6 6 0 0 1 40 46H24A6 6 0 0 1 18 40V24A6 6 0 0 1 24 18Z" fill="url(#fm6s)"></path><circle cx="26" cy="26" r="2" fill="#173F35"></circle><circle cx="38" cy="26" r="2" fill="#173F35"></circle><circle cx="26" cy="38" r="2" fill="#173F35"></circle><circle cx="38" cy="38" r="2" fill="#173F35"></circle></g></g></svg>
