<svg xmlns="http://www.w3.org/2000/svg" viewBox="-8 -8 80 80"><defs><linearGradient id="ev4p" x1="0" y1="0" x2="0.3" y2="1"><stop offset="0" stop-color="#E0B400"></stop><stop offset="1" stop-color="#FFF08A"></stop></linearGradient><linearGradient id="ev4s" x1="0" y1="1" x2="1" y2="0"><stop offset="0" stop-color="#6E7F90"></stop><stop offset="1" stop-color="#D5DEE6"></stop></linearGradient><linearGradient id="ev4t" x1="0" y1="0" x2="1" y2="1"><stop offset="0" stop-color="#12A7B8"></stop><stop offset="1" stop-color="#A8EEF2"></stop></linearGradient></defs><g><g><path d="M28 30V52" fill="none" stroke-linecap="round" stroke-linejoin="round" stroke="#173F35" stroke-width="3.5"></path><path d="M16 8H40L50 30H6Z" fill="url(#ev4p)"></path><path d="M17 52H39A3 3 0 0 1 42 55V56A3 3 0 0 1 39 59H17A3 3 0 0 1 14 56V55A3 3 0 0 1 17 52Z" fill="url(#ev4s)"></path><path d="M20 36L14 46M36 36L42 46" fill="none" stroke-linecap="round" stroke-linejoin="round" stroke="#173F35" stroke-width="3.5"></path></g></g></svg>
